<svg viewBox="-5 -3.79 116.48648648648648 105.57000000000001" xmlns="http://www.w3.org/2000/svg">
<path d="m79.688 45.312h-9.375l-4.6875-10.938 1.4375-0.61719 4.0703 9.4922c0.44531-0.52734 0.74609-1.3555 0.74609-2.625 0-2.2461-3.2266-6.9141-5.043-9.3594-0.73438-0.99219-1.8984-1.5781-3.1367-1.5781-1.6484 0-3.1094 1.0547-3.6289 2.6172l-3.8164 11.445s-1.5625 4.6875-1.5625 9.375v3.125c0 3.7852 3.125 12.5 3.125 12.5l-10.938 7.8125 4.6875 6.25h1.5625l-1.5625-4.6875 12.5-7.8125-1.1523-6.9141-5.6914-6.6406 1.1875-1.0156 10.344 11.445-4.6875 12.5-1.5625 1.5625 4.6875 6.25h1.5625l-1.5625-4.6875 7.8125-15.625-8.7148-15.5-5.3477-11.926 0.90625-0.45312 5.3438 10.691 12.5-1.5625 3.125 3.125 1.5625-3.125v-1.5625l-4.6875-1.5625z"/>
<path d="m65.625 26.562s0.89062-2.6641 1.9961-1.9648c-0.082032 0.21484-0.15625 0.42969-0.21875 0.66406-0.55859 2.0859 0 4.0469 1.25 4.3789 1.25 0.33594 2.7188-1.082 3.2734-3.1641 0.32031-1.1953 0.27344-2.3438-0.0625-3.1758-0.042969-0.625-0.39062-3.1797-3.1172-4.5469-3.125-1.5625-6.25-1.5625-9.375-6.25l-1.0156 1.3516c2.9219 3.1367 5.3828 5.0117 7.5117 5.7188l-0.49219 1.4844c-3.0195-1.0078-5.9141-3.7461-7.9688-5.9297l-0.88281 1.1758c4.4609 4.2578 6.7344 5.8672 7.8828 6.4414l-0.69922 1.3984c-1.7109-0.85547-4.4414-3.0625-8.1328-6.5781l-0.89453 1.1953s4.6875 6.25 10.938 7.8125z"/>
<path d="m59.375 29.688s-6.25-12.5-20.312-12.5c-7.8125 0-7.8125 3.125-14.062 3.125-3.125 0-9.375-3.125-9.375 0s6.25 3.125 10.938 3.125-3.125 7.8125 3.125 14.062c4.6875 4.6875 14.062 3.125 14.062 3.125s-15.625 6.25-15.625 15.625c0 6.25 4.75 10.258 10.938 9.375 10.938-1.5625 14.062-17.188 14.062-17.188zm-19.695-1.9805c-2.9922-1.7266-4.7109-4.3359-3.8516-5.832 0.86328-1.4961 3.9844-1.3047 6.9766 0.41797 2.9922 1.7266 4.7109 4.3359 3.8516 5.832-0.86328 1.4922-3.9844 1.3047-6.9766-0.41797zm3.9922 30.672c-1.7617 1.8945-4.2188 2.4766-5.4805 1.3008-1.2656-1.1758-0.85547-3.6641 0.91016-5.5625 1.7617-1.8945 4.2188-2.4766 5.4805-1.3008 1.2656 1.1758 0.85547 3.6641-0.91016 5.5625zm1.6406-8.3789c-0.86328 0-1.5625-0.69922-1.5625-1.5625s0.69922-1.5625 1.5625-1.5625 1.5625 0.69922 1.5625 1.5625-0.69922 1.5625-1.5625 1.5625zm4.6875-15.625c-0.86328 0-1.5625-0.69922-1.5625-1.5625s0.69922-1.5625 1.5625-1.5625 1.5625 0.69922 1.5625 1.5625-0.69922 1.5625-1.5625 1.5625z"/>
</svg>
