<svg viewBox="0 11.52 551.68 500.48" xmlns="http://www.w3.org/2000/svg">
<path d="M80,256c0,28.808,6.957,56.021,19.279,80.048l40.472-72.423l-45.98-75.867C84.906,208.754,80,231.814,80,256z"/>
<polygon points="327.753,184 363.273,247.563 401.797,184"/>
<polygon points="394.365,336 362.713,279.359 328.385,336"/>
<polygon points="202.576,184 158.262,263.298 202.324,336 309.676,336 353.738,263.298 309.424,184"/>
<polygon points="211.517,168 300.483,168 256,88.399"/>
<path d="M103.626,168h89.562l48.868-87.448C182.914,85.209,131.902,119.229,103.626,168z"/>
<polygon points="110.203,184 148.727,247.563 184.247,184"/>
<polygon points="183.615,336 149.287,279.359 117.635,336"/>
<circle cx="256" cy="48" r="16"/>
<path d="M241.428,431.392L193.312,352h-84.751C137.501,396.297,185.842,426.814,241.428,431.392z"/>
<path d="M284.681,33.83C286.802,38.104,288,42.914,288,48c0,6.602-2.01,12.743-5.45,17.844  c84.667,11.764,151.842,78.939,163.606,163.606c5.101-3.44,11.242-5.45,17.844-5.45c5.086,0,9.896,1.198,14.17,3.319  C465.253,126.693,385.307,46.748,284.681,33.83z"/>
<circle cx="464" cy="256" r="16"/>
<path d="M269.943,80.552L318.811,168h89.562C380.098,119.229,329.086,85.209,269.943,80.552z"/>
<path d="M446.156,282.55c-11.764,84.667-78.939,151.842-163.606,163.606c3.44,5.101,5.45,11.242,5.45,17.844  c0,5.086-1.198,9.896-3.319,14.17c100.626-12.918,180.571-92.863,193.489-193.489c-4.274,2.12-9.084,3.319-14.17,3.319  C457.398,288,451.257,285.99,446.156,282.55z"/>
<path d="M403.439,352h-84.751l-48.117,79.392C326.158,426.814,374.499,396.297,403.439,352z"/>
<polygon points="299.979,352 212.021,352 256,424.565"/>
<path d="M432,256c0-24.186-4.906-47.246-13.771-68.242l-45.98,75.867l40.472,72.423C425.043,312.021,432,284.808,432,256z"/>
<path d="M65.844,282.55C60.743,285.99,54.602,288,48,288c-5.086,0-9.896-1.198-14.17-3.319  c12.918,100.626,92.863,180.571,193.489,193.489c-2.12-4.274-3.319-9.084-3.319-14.17c0-6.602,2.01-12.743,5.45-17.844  C144.783,434.392,77.608,367.217,65.844,282.55z"/>
<path d="M65.844,229.45C77.608,144.783,144.783,77.608,229.45,65.844C226.01,60.743,224,54.602,224,48  c0-5.086,1.198-9.896,3.319-14.17C126.693,46.748,46.747,126.693,33.83,227.319C38.104,225.198,42.914,224,48,224  C54.602,224,60.743,226.01,65.844,229.45z"/>
<circle cx="256" cy="464" r="16"/>
<circle cx="48" cy="256" r="16"/>
</svg>
