<svg viewBox="0 0 107.74999999999999 100" xmlns="http://www.w3.org/2000/svg">
<path d="M80.5,34.4c0-2.8-2.2-5.1-5-5.2c0,0,0-0.1,0-0.1c0-2.3-1.9-4.2-4.2-4.2c-2.3,0-4.2,1.9-4.2,4.2H54.9V16.4 c2.3,0,4.2-1.9,4.2-4.2c0-2.3-1.9-4.2-4.2-4.2c0,0-0.1,0-0.1,0c-0.2-2.8-2.4-5-5.2-5c-2.8,0-5.1,2.2-5.2,5c0,0-0.1,0-0.1,0 c-2.3,0-4.2,1.9-4.2,4.2c0,2.3,1.9,4.2,4.2,4.2v12.7H31.9c0-2.3-1.9-4.2-4.2-4.2c-2.3,0-4.2,1.9-4.2,4.2c0,0,0,0.1,0,0.1 c-2.8,0.2-5,2.4-5,5.2s2.2,5.1,5,5.2c0,0,0,0.1,0,0.1c0,2.3,1.9,4.2,4.2,4.2c2.3,0,4.2-1.9,4.2-4.2h12.3v45 c-2.3,0-4.2,1.9-4.2,4.2c0,2.3,1.9,4.2,4.2,4.2c0,0,0.1,0,0.1,0c0.2,2.8,2.4,5,5.2,5c2.8,0,5.1-2.2,5.2-5c0,0,0.1,0,0.1,0 c2.3,0,4.2-1.9,4.2-4.2c0-2.3-1.9-4.2-4.2-4.2v-45h12.3c0,2.3,1.9,4.2,4.2,4.2c2.3,0,4.2-1.9,4.2-4.2c0,0,0-0.1,0-0.1 C78.4,39.4,80.5,37.2,80.5,34.4z"/>
</svg>
