<svg viewBox="-5 -3.79 116.48648648648648 105.57000000000001" version="1.1" xmlns="http://www.w3.org/2000/svg" style="max-height: 500px" width="116.48648648648648" height="105.57000000000001">
 <path d="m53.379 50.223 5.4531-0.95703-1.2422 8.875zm-10.746 0.59766 8.8203-1.5586-2.6016-4.8945zm11.578-12.012-4.4297 4.5898 3 5.6211 6.3164-1.0508 0.88281-6.3164zm-1.2109-0.58984-8.0625-3.9258 4.2109 7.9062zm8.4219-6.832-6.3047 6.5078 4.9805 2.4297zm13.684-14.832 8.4219 48.031v0.003906c-4.1133 1.293-6.8594 5.1641-6.7266 9.4727l-31.844 5.5781c-1.3672-4.0664-5.2578-6.7422-9.5469-6.5664l-8.4219-48.031c4.1133-1.2969 6.8633-5.1641 6.7383-9.4727l31.789-5.582c1.3672 4.0703 5.2578 6.7461 9.5469 6.5703zm-1.8125 30.152-11.977-5.8438 1.8516-13.211-9.2617 9.6016-11.992-5.8555 6.3164 11.777-9.2617 9.5898 13.125-2.3164 6.3164 11.777 1.8633-13.211zm-12.949 0.98047 8.832-1.5586-8.0508-3.9258zm17.676-44.016 12.707 72.055-1.0508 1.4414-1.6719 0.29297-0.003906 0.003906c-2.793 0.74219-5.1953 2.5312-6.707 5l0.72656 3.8516-0.74609 1.0508-1.4297 0.25391-55.105 9.707c-0.71094 0.13672-1.4453-0.015625-2.0391-0.42578s-0.99609-1.043-1.1211-1.7539l-12.305-69.957c0.28906-5.9766 4.4609-11.059 10.262-12.508l0.92578 5.2617 0.95703-5.5781 49.141-8.6836 1.4531 3.293 0.23047-3.5898 4.2852-0.75391zm3.0312 75.023-40.523 7.1484-4.8086 0.84375-4.043-6.5586 1.2539 7.0508h-0.003907c-3.7734 0.98828-6.7383 3.9062-7.7891 7.6641l52.359-9.2422c0.085937-0.47266 0.23047-0.88281 0.34766-1.3164l-12.77 0.97656 13.23-2.3281c0.13672-0.34766 0.27344-0.68359 0.42969-1.0508l-4.8438-0.31641 5.582-0.95703c0.46875-0.68359 0.99609-1.3242 1.5781-1.9141zm-4.6719-62.789c-0.054687-0.33984-0.24219-0.64062-0.51953-0.83984-0.28125-0.19922-0.62891-0.27344-0.96484-0.21484-3.6172 0.64063-7.0742-1.7617-7.7383-5.3789-0.054688-0.33594-0.24219-0.63672-0.52344-0.83203-0.27734-0.19922-0.62109-0.27734-0.96094-0.21875l-32.691 5.7461c-0.33984 0.058593-0.63672 0.24609-0.83594 0.52344s-0.27734 0.625-0.21875 0.96094c0.30859 1.7422-0.085937 3.5391-1.1016 4.9883-1.0156 1.4531-2.5664 2.4414-4.3086 2.75-0.33594 0.054687-0.64062 0.24219-0.83984 0.51953-0.19531 0.28125-0.27344 0.625-0.21094 0.96484l8.6289 48.809c0.054688 0.33984 0.24219 0.64062 0.52344 0.83984 0.27734 0.19531 0.625 0.27344 0.96094 0.21484 3.6328-0.63672 7.0977 1.7891 7.7383 5.418 0.12109 0.70312 0.78906 1.1758 1.4922 1.0547l32.684-5.7695h0.003906c0.33594-0.054687 0.63672-0.24609 0.83203-0.52344 0.19922-0.27734 0.27734-0.625 0.21875-0.96094-0.30859-1.7422 0.089844-3.5391 1.1016-4.9883 1.0156-1.4531 2.5664-2.4414 4.3086-2.7461 0.69922-0.125 1.168-0.78516 1.0547-1.4844z"/>
<text fill="#000000" font-family="Arbeit Regular, Helvetica, Arial-Unicode, Arial, Sans-serif" font-weight="bold" font-size="5.0" y="117.5" x="0.0">Created by Hamstring</text><text fill="#000000" font-family="Arbeit Regular, Helvetica, Arial-Unicode, Arial, Sans-serif" font-weight="bold" font-size="5.0" y="122.5" x="0.0">from Noun Project</text></svg>