<svg viewBox="-5 -3.79 116.48648648648648 105.57000000000001" version="1.1" xmlns="http://www.w3.org/2000/svg" style="max-height: 500px" width="116.48648648648648" height="105.57000000000001">
 <path fill-rule="evenodd" d="m92.855 24.402c0 13.262-12.258 29.184-14.945 28.488-1.5625-0.40234-1.8203-7.4297-1.2227-17.02-2.5898 3.0273-5.8945 5.1797-7.1523 5.1797-1.0508 0-3.2109-5.75-3.9336-8.0234 0 8.0781-13.188 10.07-15.602 1.6055-2.4141 8.4648-15.602 6.4727-15.602-1.6055-0.72266 2.2734-2.8828 8.0234-3.9336 8.0234-1.2578 0-4.5625-2.1484-7.1523-5.1797 0.59766 9.5898 0.33984 16.617-1.2227 17.02-2.6914 0.69531-14.945-15.227-14.945-28.488 0-8.1133 6.4883-15.918 8.4961-15.918 1.5586 0 6.2031 6.6797 6.918 9.4414 1.2812-2.6094 3.4766-4.5625 4.6016-4.5625 1.3516 0 6.3477 2.5977 7.2695 7.4219 0.96484-4.2734 5.6055-8.6016 7.5195-8.6016 2.3359 0 6.7422 3.8555 8.0508 9.1719 1.3125-5.3164 5.7148-9.1719 8.0508-9.1719 1.9102 0 6.5547 4.3281 7.5195 8.6016 0.92188-4.8242 5.918-7.4219 7.2695-7.4219 1.125 0 3.3242 1.9531 4.6016 4.5625 0.71875-2.7617 5.3633-9.4414 6.9219-9.4414 2.0078 0 8.4922 7.8047 8.4922 15.918zm-18.352 37.898c-2.0898-0.50781-12.258 8.1719-12.258 15.102-5.3359-3.0508-9.8984 0-12.246 3.8789-2.3477-3.8789-6.9102-6.9336-12.246-3.8789 0-6.9336-10.168-15.613-12.258-15.102-2.1133 0.51562-5.6641 21.922 8.4961 22.129 2.9375 11.434 14.16 6.293 16.008 3.3555 1.8477 2.9375 13.07 8.0781 16.008-3.3555 14.156-0.21094 10.605-21.617 8.4961-22.129z"/>
<text fill="#000000" font-family="Arbeit Regular, Helvetica, Arial-Unicode, Arial, Sans-serif" font-weight="bold" font-size="5.0" y="117.5" x="0.0">Created by Hamstring</text><text fill="#000000" font-family="Arbeit Regular, Helvetica, Arial-Unicode, Arial, Sans-serif" font-weight="bold" font-size="5.0" y="122.5" x="0.0">from Noun Project</text></svg>