<svg viewBox="-5 -3.79 116.48648648648648 105.57000000000001" xmlns="http://www.w3.org/2000/svg">
<path d="m50.148 4.168c-12.562-0.046875-24.379 5.9531-31.75 16.125-7.375 10.168-9.4023 23.266-5.4531 35.188h0.003907c0.15625-0.43359 0.32422-0.86328 0.50391-1.2891-2.9141-9.6914-1.8555-20.145 2.9336-29.059 4.793-8.9141 12.93-15.562 22.621-18.477 9.6953-2.9141 20.145-1.8633 29.062 2.9297 8.9141 4.7891 15.562 12.926 18.477 22.617 2.918 9.6914 1.8672 20.145-2.9219 29.059-4.7891 8.918-12.922 15.566-22.613 18.484 0.14844 0.25781 0.28516 0.51562 0.41797 0.78125 12.004-3.6758 21.512-12.902 25.539-24.797 4.0312-11.891 2.0938-24.996-5.2031-35.215-7.3008-10.219-19.066-16.301-31.625-16.348zm-7.5625 16.238-5.3086 7.0391c-2.9453 3.6992-6.3086 7.043-10.02 9.9688-1.7344 1.1953-3.9727 1.3828-5.8828 0.49219 0.003906 1.3242 0.98047 2.4492 2.293 2.6367-4.0938 1.2656-7.207 4.6133-8.1719 8.7891 0.87109-1.0938 2.1328-1.8047 3.5195-1.9805-4.6406 4.8242-7.0352 11.375-6.5938 18.051 0.4375 6.6797 3.668 12.859 8.8984 17.031-0.74219-1.0938-0.95312-2.4648-0.57422-3.7344 5.8555 9.9531 16.25 16.367 27.773 17.133-0.91406-0.58984-1.5977-1.4727-1.9453-2.5039 3.6406 1.5664 7.5938 2.2656 11.547 2.043 5.0586 0.035156 9.8594-2.2188 13.07-6.1328-1.7344 0.90625-3.7773 0.99219-5.582 0.23438-1.8008-0.75391-3.1719-2.2734-3.7383-4.1445-0.26953-3.5977-2.1562-6.875-5.1289-8.9141 1.082-0.23437 2.207 0.14844 2.9297 0.99219-0.74609-2.6797-2.6914-4.8594-5.2617-5.9102 0.9375-0.57422 1.6406-1.4688 1.9727-2.5156-1.0703 0.39062-2.2109 0.5625-3.3555 0.5-1.5117 0.015625-2.8398-1.0117-3.207-2.4805-0.125-1.1562 0.31641-2.3008 1.1836-3.0742 0.87109-0.77344 2.0586-1.0781 3.1914-0.82422 1.4766 0.16016 2.9141 0.57813 4.25 1.2344 2.4844 1.0234 5.3398 0.49219 7.2891-1.3594 1.8594-2.3984 3.9844-4.5781 6.3398-6.4922 0.29297-0.24219 0.45312-0.60547 0.4375-0.98828-0.015625-0.37891-0.20703-0.73047-0.51562-0.94922l-7.25-5.1719c-1.7305-1.332-3.8398-2.082-6.0234-2.1406-0.78516-0.011719-1.4453-0.58984-1.5586-1.3633l-0.078124-3.3789c-0.69922-1.2852-1.7617-2.3398-3.0508-3.0352l-6.3008-3.4297 2.8359-13.379-6.3594 5.9375zm-10.746 22.039h-0.003906c-2.3438 1.1016-4.0703 3.1992-4.6992 5.7148-0.27734-1.4062 0.09375-2.8594 1-3.9648 0.91016-1.1094 2.2695-1.75 3.6992-1.75zm7.9766 1.5586v-0.003906c0.52734-0.003906 1.0586 0.027344 1.5859 0.089844-4.6367 0.73828-8.375 4.1875-9.4844 8.75-1.1133 4.5625 0.62109 9.3438 4.3984 12.133-3.5273-1.3594-6.1445-4.3828-6.9844-8.0703-0.83594-3.6836 0.21875-7.543 2.8164-10.293 2.207-1.6719 4.8945-2.5898 7.668-2.6094zm6.4336 1.0078h6.1758v-0.003907c0.87891 0.16406 1.5508 0.88281 1.6523 1.7734 0.10156 0.88672-0.39062 1.7383-1.2109 2.0977-2.4609-0.80078-4.7148-2.1211-6.6172-3.8711zm-21.199 9.1328v-0.003906c-0.0625 1.2344-0.11328 2.4727-0.14844 3.707-0.066406 4.5664 2.0938 8.875 5.793 11.555 3.9844 1.9844 7.7773 4.332 11.332 7.0117 3.4727 2.5781 5.5703 6.6094 5.6914 10.934-2.2344-6.2109-7.25-11.016-13.551-12.98-3.0312-0.87891-5.6602-2.793-7.4297-5.4062-2.5078-4.5195-3.1172-9.8516-1.6914-14.82zm24.09 2.4766v-0.003906c-1.4414 1.332-2.4531 3.0625-2.9102 4.9688 1.4219-0.56641 2.9492-0.80859 4.4766-0.71094-1.707 0.30859-3.2109 1.3008-4.1719 2.7461-0.96094 1.4453-1.293 3.2148-0.91797 4.9102-2.2891-4.2656-0.71484-9.5781 3.5234-11.914zm-18.082 21.996v-0.003907c4.1797 0.12891 8.043 2.2578 10.387 5.7188-2.9648-2.6953-6.5234-4.6523-10.387-5.7188z"/>
</svg>
